<svg width="49" height="56" viewBox="0 0 49 56" fill="none" xmlns="http://www.w3.org/2000/svg">
<path d="M-1.46817e-05 31.8622V52.1688C-2.68414e-05 52.5923 -3.73311e-05 52.9578 0.0213358 53.2603C0.0438399 53.5787 0.0933436 53.8972 0.228348 54.2119C0.532829 54.9217 1.11685 55.4855 1.85194 55.7795C2.17786 55.9099 2.50777 55.9577 2.8376 55.9794C3.15084 56 3.52929 56 3.9679 56H4.03197C4.47058 56 4.84913 56 5.16237 55.9794C5.4922 55.9577 5.82211 55.9099 6.14804 55.7795C6.88312 55.4855 7.46714 54.9217 7.77162 54.2119C7.90663 53.8972 7.95613 53.5787 7.97864 53.2603C8.00001 52.9578 8 52.5924 7.99999 52.1688L7.99999 31.8622H5.99999V52.138C5.99999 52.601 5.99944 52.9 5.98328 53.1288C5.96772 53.3489 5.9411 53.4328 5.92387 53.473C5.82237 53.7095 5.6277 53.8975 5.38267 53.9955C5.34106 54.0121 5.25422 54.0378 5.02623 54.0528C4.78925 54.0685 4.47961 54.069 3.99999 54.069C3.52036 54.069 3.21073 54.0685 2.97375 54.0528C2.74575 54.0378 2.65892 54.0121 2.6173 53.9955C2.37227 53.8975 2.1776 53.7095 2.07611 53.473C2.05887 53.4328 2.03225 53.3489 2.0167 53.1288C2.00053 52.9 1.99999 52.601 1.99999 52.138V31.8622H-1.46817e-05Z" fill="#AD2D11"/>
<path d="M1.1386 0.000244141C0.509758 0.000244141 -1.52588e-05 0.49244 -1.52588e-05 1.09959L-1.46817e-05 31.8622H1.99999L1.99998 1.95868C8.70149 2.38655 14 7.77041 14 14.3491V29.9312H7.59998C7.03993 29.9312 6.75991 29.9312 6.54599 30.0364C6.35783 30.129 6.20485 30.2767 6.10898 30.4583C5.99998 30.6649 5.99998 30.9352 5.99998 31.476L5.99999 31.8622H14.3921C15.2801 31.8622 16 31.1671 16 30.3098V14.3491C16 6.42445 9.34632 0.000244141 1.1386 0.000244141Z" fill="#AD2D11"/>
<path d="M36 24.7726C36 24.2126 36 23.9325 35.891 23.7186C35.7951 23.5305 35.6422 23.3775 35.454 23.2816C35.2401 23.1726 34.9601 23.1726 34.4 23.1726H34V52.1689C34 52.5924 34 52.9579 34.0214 53.2603C34.0439 53.5788 34.0934 53.8973 34.2284 54.212C34.5328 54.9217 35.1169 55.4856 35.852 55.7796C36.1779 55.9099 36.5078 55.9577 36.8376 55.9795C37.1509 56.0001 37.5293 56.0001 37.9679 56.0001H38.032C38.4706 56.0001 38.8491 56.0001 39.1624 55.9795C39.4922 55.9577 39.8221 55.9099 40.1481 55.7796C40.8831 55.4856 41.4672 54.9217 41.7716 54.212C41.9066 53.8973 41.9561 53.5788 41.9787 53.2603C42 52.9579 42 52.5924 42 52.1689L42 23.1726H41.6C41.0399 23.1726 40.7599 23.1726 40.546 23.2816C40.3578 23.3775 40.2049 23.5305 40.109 23.7186C40 23.9325 40 24.2126 40 24.7726V52.138C40 52.6011 39.9995 52.9001 39.9833 53.1289C39.9677 53.349 39.9411 53.4328 39.9239 53.473C39.8224 53.7096 39.6277 53.8975 39.3827 53.9955C39.3411 54.0122 39.2542 54.0379 39.0262 54.0529C38.7893 54.0685 38.4796 54.069 38 54.069C37.5204 54.069 37.2107 54.0685 36.9738 54.0529C36.7458 54.0379 36.6589 54.0122 36.6173 53.9955C36.3723 53.8975 36.1776 53.7096 36.0761 53.473C36.0589 53.4328 36.0323 53.349 36.0167 53.1289C36.0005 52.9001 36 52.6011 36 52.138V24.7726Z" fill="#AD2D11"/>
<path d="M46 1.93124C46.1286 1.93124 46.1947 1.93145 46.2416 1.9333C46.2779 1.94977 46.3227 1.97182 46.4035 2.01162L46.454 2.03647C46.6422 2.12904 46.7951 2.27674 46.891 2.45842C46.9162 2.50616 46.9539 2.6034 46.9761 2.8657C46.9992 3.13926 47 3.4987 47 4.05537V14.4829C47 16.3237 46.9952 17.1031 46.8655 17.7325C46.3131 20.4135 44.1425 22.5094 41.3656 23.0427C39.4218 23.416 40.6945 23.8986 41 25.0393C41.2705 25.0152 41.5187 24.9821 41.7558 24.9366C45.326 24.2509 48.1169 21.5563 48.8271 18.1092C49.0002 17.2688 49.0001 16.2841 49 14.6184L49 4.01813C49 3.50917 49 3.0701 48.9694 2.70845C48.9371 2.32674 48.8658 1.94708 48.673 1.58175C48.3854 1.03673 47.9265 0.593618 47.362 0.315918L47.3059 0.288062C47.1519 0.211244 46.944 0.107573 46.7194 0.0543528C46.4854 -0.00111498 46.2445 -0.000431608 46.0534 0.000110618L46 0.000213179C44.3431 0.000213179 43 1.29704 43 2.89675V11.5864C43 12.1196 42.5523 12.5519 42 12.5519C41.4477 12.5519 41 12.1196 41 11.5864V2.89675C41 1.29704 39.6569 0.000213294 38 0.000213179C36.3431 0.000213294 35 1.29704 35 2.89675V11.5864C35 12.1196 34.5523 12.5519 34 12.5519C33.4477 12.5519 33 12.1196 33 11.5864V2.89675C33 1.29704 31.6569 0.000213179 30 0.000213179C28.8767 0.000213179 27.8558 0.579715 27.327 1.58175C27.1342 1.94708 27.0629 2.32674 27.0306 2.70845C27 3.0701 27 3.50918 27 4.01815L27 14.6184C26.9999 16.2841 26.9998 17.2688 27.1729 18.1092C27.8831 21.5563 30.674 24.2509 34.2442 24.9366C34.4813 24.9821 34.7295 25.0152 35 25.0393C35.3055 23.8986 36.5928 23.4188 34.6344 23.0427C31.8575 22.5094 29.6868 20.4135 29.1345 17.7325C29.0048 17.1031 29 16.3237 29 14.4829V4.05537C29 3.4987 29.0008 3.13926 29.0239 2.8657C29.0461 2.6034 29.0838 2.50616 29.109 2.45842C29.2896 2.11627 29.6136 1.93124 30 1.93124C30.5523 1.93124 31 2.36351 31 2.89675V11.5864C31 13.1861 32.3431 14.4829 34 14.4829C35.6569 14.4829 37 13.1861 37 11.5864V2.89675C37 2.36351 37.4477 1.93124 38 1.93124C38.5523 1.93124 39 2.36351 39 2.89675V11.5864C39 13.1861 40.3431 14.4829 42 14.4829C43.6569 14.4829 45 13.1861 45 11.5864V2.89675C45 2.36351 45.4477 1.93124 46 1.93124Z" fill="#AD2D11"/>
</svg>
