<svg width="66" height="56" viewBox="0 0 66 56" fill="none" xmlns="http://www.w3.org/2000/svg">
<path d="M64.8621 53.7602H59.1724V21.2831C59.1724 20.392 58.8127 19.5375 58.1725 18.9074C57.5323 18.2774 56.664 17.9234 55.7586 17.9234H36.4138V3.36469C36.4147 2.75606 36.2476 2.15861 35.9304 1.63617C35.6131 1.11373 35.1576 0.685917 34.6125 0.398429C34.0674 0.110941 33.4532 -0.0254234 32.8355 0.00390318C32.2178 0.0332298 31.6198 0.227145 31.1053 0.564936L8.34672 15.496C7.87868 15.8033 7.49508 16.2197 7.23004 16.7082C6.965 17.1967 6.82675 17.742 6.82759 18.2958V53.7602H1.13793C0.836133 53.7602 0.546696 53.8782 0.333292 54.0882C0.119889 54.2982 0 54.5831 0 54.8801C0 55.1771 0.119889 55.462 0.333292 55.672C0.546696 55.882 0.836133 56 1.13793 56H64.8621C65.1639 56 65.4533 55.882 65.6667 55.672C65.8801 55.462 66 55.1771 66 54.8801C66 54.5831 65.8801 54.2982 65.6667 54.0882C65.4533 53.8782 65.1639 53.7602 64.8621 53.7602ZM55.7586 20.1632C56.0604 20.1632 56.3499 20.2812 56.5633 20.4912C56.7767 20.7012 56.8965 20.9861 56.8965 21.2831V53.7602H36.4138V20.1632H55.7586ZM9.10345 18.2986C9.10286 18.1137 9.14879 17.9315 9.23715 17.7683C9.32551 17.6052 9.45354 17.4661 9.60983 17.3634L32.3684 2.43237C32.5399 2.31982 32.7391 2.25518 32.9449 2.24537C33.1508 2.23556 33.3554 2.28093 33.5371 2.37665C33.7188 2.47237 33.8706 2.61483 33.9764 2.78885C34.0822 2.96286 34.1381 3.16189 34.1379 3.36469V53.7602H9.10345V18.2986ZM27.3103 25.7627V30.2423C27.3103 30.5393 27.1905 30.8242 26.9771 31.0342C26.7636 31.2442 26.4742 31.3622 26.1724 31.3622C25.8706 31.3622 25.5812 31.2442 25.3678 31.0342C25.1544 30.8242 25.0345 30.5393 25.0345 30.2423V25.7627C25.0345 25.4657 25.1544 25.1808 25.3678 24.9708C25.5812 24.7608 25.8706 24.6428 26.1724 24.6428C26.4742 24.6428 26.7636 24.7608 26.9771 24.9708C27.1905 25.1808 27.3103 25.4657 27.3103 25.7627ZM18.2069 25.7627V30.2423C18.2069 30.5393 18.087 30.8242 17.8736 31.0342C17.6602 31.2442 17.3708 31.3622 17.069 31.3622C16.7672 31.3622 16.4777 31.2442 16.2643 31.0342C16.0509 30.8242 15.931 30.5393 15.931 30.2423V25.7627C15.931 25.4657 16.0509 25.1808 16.2643 24.9708C16.4777 24.7608 16.7672 24.6428 17.069 24.6428C17.3708 24.6428 17.6602 24.7608 17.8736 24.9708C18.087 25.1808 18.2069 25.4657 18.2069 25.7627ZM18.2069 41.4413V45.9209C18.2069 46.2179 18.087 46.5028 17.8736 46.7128C17.6602 46.9228 17.3708 47.0408 17.069 47.0408C16.7672 47.0408 16.4777 46.9228 16.2643 46.7128C16.0509 46.5028 15.931 46.2179 15.931 45.9209V41.4413C15.931 41.1443 16.0509 40.8594 16.2643 40.6494C16.4777 40.4394 16.7672 40.3214 17.069 40.3214C17.3708 40.3214 17.6602 40.4394 17.8736 40.6494C18.087 40.8594 18.2069 41.1443 18.2069 41.4413ZM27.3103 41.4413V45.9209C27.3103 46.2179 27.1905 46.5028 26.9771 46.7128C26.7636 46.9228 26.4742 47.0408 26.1724 47.0408C25.8706 47.0408 25.5812 46.9228 25.3678 46.7128C25.1544 46.5028 25.0345 46.2179 25.0345 45.9209V41.4413C25.0345 41.1443 25.1544 40.8594 25.3678 40.6494C25.5812 40.4394 25.8706 40.3214 26.1724 40.3214C26.4742 40.3214 26.7636 40.4394 26.9771 40.6494C27.1905 40.8594 27.3103 41.1443 27.3103 41.4413Z" fill="#AD2D11"/>
</svg>
