<svg width="60" height="57" viewBox="0 0 60 57" fill="none" xmlns="http://www.w3.org/2000/svg">
<path d="M27.883 1.62217L28.3883 2.4851L27.883 1.62217ZM29.0794 1.03766L28.869 0.0600237L29.0794 1.03766ZM31.1171 1.62217L30.6117 2.48509L31.1171 1.62217ZM29.9207 1.03766L30.131 0.0600237L29.9207 1.03766ZM2.46156 19.4168L1.75576 20.1252L2.46156 19.4168ZM6.67999 14.0386L6.17466 13.1756L6.67999 14.0386ZM1.93909 17.4906L0.972053 17.236L1.93909 17.4906ZM56.5385 19.4168L57.2443 20.1252L56.5385 19.4168ZM52.32 14.0386L52.8254 13.1756L52.32 14.0386ZM57.0609 17.4906L58.028 17.236L57.0609 17.4906ZM3.59203 54.7959L4.04602 53.9049L3.59203 54.7959ZM2.718 53.9218L3.609 53.4678L2.718 53.9218ZM58.282 53.9218L57.391 53.4678L58.282 53.9218ZM57.408 54.7959L56.954 53.9049L57.408 54.7959ZM57.408 48.2179L56.954 49.1089L57.408 48.2179ZM58.282 49.092L57.391 49.5459L58.282 49.092ZM3.59203 48.2179L4.04602 49.1089L3.59203 48.2179ZM2.718 49.092L3.609 49.5459L2.718 49.092ZM12.5 25.9999C12.5 25.4477 12.0523 24.9999 11.5 24.9999C10.9477 24.9999 10.5 25.4477 10.5 25.9999H12.5ZM10.5 41.9999C10.5 42.5522 10.9477 42.9999 11.5 42.9999C12.0523 42.9999 12.5 42.5522 12.5 41.9999H10.5ZM36.5 25.9999C36.5 25.4477 36.0523 24.9999 35.5 24.9999C34.9477 24.9999 34.5 25.4477 34.5 25.9999H36.5ZM34.5 41.9999C34.5 42.5522 34.9477 42.9999 35.5 42.9999C36.0523 42.9999 36.5 42.5522 36.5 41.9999H34.5ZM24.5 25.9999C24.5 25.4477 24.0523 24.9999 23.5 24.9999C22.9477 24.9999 22.5 25.4477 22.5 25.9999H24.5ZM22.5 41.9999C22.5 42.5522 22.9477 42.9999 23.5 42.9999C24.0523 42.9999 24.5 42.5522 24.5 41.9999H22.5ZM48.5 25.9999C48.5 25.4477 48.0523 24.9999 47.5 24.9999C46.9477 24.9999 46.5 25.4477 46.5 25.9999H48.5ZM46.5 41.9999C46.5 42.5522 46.9477 42.9999 47.5 42.9999C48.0523 42.9999 48.5 42.5522 48.5 41.9999H46.5ZM50.703 18.9999H8.29704V20.9999H50.703V18.9999ZM7.18532 14.9015L28.3883 2.4851L27.3776 0.75924L6.17466 13.1756L7.18532 14.9015ZM30.6117 2.48509L51.8147 14.9015L52.8254 13.1756L31.6224 0.75924L30.6117 2.48509ZM28.3883 2.4851C29.0361 2.10576 29.1702 2.04099 29.2897 2.01529L28.869 0.0600237C28.3617 0.169167 27.9072 0.449117 27.3776 0.75924L28.3883 2.4851ZM31.6224 0.75924C31.0928 0.449116 30.6383 0.169167 30.131 0.0600237L29.7103 2.01529C29.8298 2.04099 29.964 2.10576 30.6117 2.48509L31.6224 0.75924ZM29.2897 2.01529C29.4283 1.98546 29.5717 1.98546 29.7103 2.01529L30.131 0.0600237C29.7151 -0.029448 29.2849 -0.029448 28.869 0.0600237L29.2897 2.01529ZM8.29704 18.9999C6.52907 18.9999 5.26333 18.9992 4.36292 18.93C3.91467 18.8955 3.60342 18.847 3.3909 18.7891C3.17198 18.7294 3.1405 18.6816 3.16735 18.7083L1.75576 20.1252C2.07528 20.4435 2.48206 20.6144 2.86527 20.7188C3.25489 20.8249 3.70966 20.8857 4.20961 20.9241C5.20558 21.0007 6.56491 20.9999 8.29704 20.9999V18.9999ZM6.17466 13.1756C4.67996 14.0509 3.50658 14.7372 2.68583 15.3066C2.27384 15.5924 1.91211 15.8746 1.62953 16.1631C1.35159 16.4468 1.08691 16.7998 0.972053 17.236L2.90612 17.7453C2.89647 17.7819 2.89946 17.7248 3.05824 17.5627C3.21237 17.4053 3.45641 17.2061 3.8258 16.9499C4.56782 16.4351 5.65969 15.7949 7.18532 14.9015L6.17466 13.1756ZM3.16735 18.7083C2.91489 18.4568 2.81537 18.0899 2.90612 17.7453L0.972053 17.236C0.699793 18.2699 0.998355 19.3706 1.75576 20.1252L3.16735 18.7083ZM50.703 20.9999C52.4351 20.9999 53.7944 21.0007 54.7904 20.9241C55.2904 20.8857 55.7451 20.8249 56.1348 20.7188C56.518 20.6144 56.9247 20.4435 57.2443 20.1252L55.8327 18.7083C55.8595 18.6816 55.828 18.7294 55.6091 18.7891C55.3966 18.847 55.0854 18.8955 54.6371 18.93C53.7367 18.9992 52.4709 18.9999 50.703 18.9999V20.9999ZM51.8147 14.9015C53.3403 15.7949 54.4322 16.4351 55.1742 16.9499C55.5436 17.2061 55.7877 17.4053 55.9418 17.5627C56.1006 17.7248 56.1036 17.7819 56.0939 17.7453L58.028 17.236C57.9131 16.7998 57.6484 16.4468 57.3705 16.1631C57.0879 15.8746 56.7262 15.5924 56.3142 15.3066C55.4934 14.7372 54.3201 14.0509 52.8254 13.1756L51.8147 14.9015ZM57.2443 20.1252C58.0017 19.3706 58.3002 18.2699 58.028 17.236L56.0939 17.7453C56.1847 18.0899 56.0851 18.4568 55.8327 18.7083L57.2443 20.1252ZM5.70001 48.9999H55.3V46.9999H5.70001V48.9999ZM57.5 51.1999V51.8139H59.5V51.1999H57.5ZM55.3 54.0139H5.70001V56.0139H55.3V54.0139ZM3.50001 51.8139V51.1999H1.50001V51.8139H3.50001ZM5.70001 54.0139C5.12346 54.0139 4.75118 54.0131 4.46785 53.9899C4.19618 53.9677 4.09546 53.93 4.04602 53.9049L3.13804 55.6869C3.51642 55.8797 3.90964 55.951 4.30498 55.9833C4.68865 56.0146 5.15646 56.0139 5.70001 56.0139V54.0139ZM1.50001 51.8139C1.50001 52.3574 1.49923 52.8252 1.53058 53.2089C1.56288 53.6042 1.6342 53.9974 1.82699 54.3758L3.609 53.4678C3.58381 53.4184 3.54613 53.3177 3.52394 53.046C3.50079 52.7627 3.50001 52.3904 3.50001 51.8139H1.50001ZM4.04602 53.9049C3.85786 53.809 3.70488 53.656 3.609 53.4678L1.82699 54.3758C2.11461 54.9403 2.57355 55.3993 3.13804 55.6869L4.04602 53.9049ZM57.5 51.8139C57.5 52.3904 57.4992 52.7627 57.4761 53.046C57.4539 53.3177 57.4162 53.4184 57.391 53.4678L59.173 54.3758C59.3658 53.9974 59.4371 53.6042 59.4694 53.2089C59.5008 52.8252 59.5 52.3574 59.5 51.8139H57.5ZM55.3 56.0139C55.8436 56.0139 56.3114 56.0146 56.695 55.9833C57.0904 55.951 57.4836 55.8797 57.862 55.6869L56.954 53.9049C56.9046 53.93 56.8038 53.9677 56.5322 53.9899C56.2488 54.0131 55.8766 54.0139 55.3 54.0139V56.0139ZM57.391 53.4678C57.2951 53.656 57.1422 53.809 56.954 53.9049L57.862 55.6869C58.4265 55.3993 58.8854 54.9403 59.173 54.3758L57.391 53.4678ZM55.3 48.9999C55.8766 48.9999 56.2488 49.0007 56.5322 49.0239C56.8038 49.0461 56.9046 49.0837 56.954 49.1089L57.862 47.3269C57.4836 47.1341 57.0904 47.0628 56.695 47.0305C56.3114 46.9992 55.8436 46.9999 55.3 46.9999V48.9999ZM59.5 51.1999C59.5 50.6564 59.5008 50.1886 59.4694 49.8049C59.4371 49.4096 59.3658 49.0163 59.173 48.638L57.391 49.5459C57.4162 49.5954 57.4539 49.6961 57.4761 49.9678C57.4992 50.2511 57.5 50.6234 57.5 51.1999H59.5ZM56.954 49.1089C57.1422 49.2048 57.2951 49.3578 57.391 49.5459L59.173 48.638C58.8854 48.0735 58.4265 47.6145 57.862 47.3269L56.954 49.1089ZM5.70001 46.9999C5.15646 46.9999 4.68865 46.9992 4.30498 47.0305C3.90964 47.0628 3.51642 47.1341 3.13804 47.3269L4.04602 49.1089C4.09546 49.0837 4.19618 49.0461 4.46785 49.0239C4.75118 49.0007 5.12346 48.9999 5.70001 48.9999V46.9999ZM3.50001 51.1999C3.50001 50.6234 3.50079 50.2511 3.52394 49.9678C3.54613 49.6961 3.58381 49.5954 3.609 49.5459L1.82699 48.638C1.6342 49.0163 1.56288 49.4096 1.53058 49.8049C1.49923 50.1886 1.50001 50.6564 1.50001 51.1999H3.50001ZM3.13804 47.3269C2.57355 47.6145 2.11461 48.0735 1.82699 48.638L3.609 49.5459C3.70488 49.3578 3.85786 49.2048 4.04602 49.1089L3.13804 47.3269ZM10.5 25.9999V41.9999H12.5V25.9999H10.5ZM34.5 25.9999V41.9999H36.5V25.9999H34.5ZM22.5 25.9999V41.9999H24.5V25.9999H22.5ZM46.5 25.9999V41.9999H48.5V25.9999H46.5Z" fill="#AD2D11"/>
</svg>
