<svg width="38" height="60" viewBox="0 0 38 60" fill="none" xmlns="http://www.w3.org/2000/svg">
<path d="M20.002 58.0191H30.2096C31.1176 58.0191 31.7296 58.0181 32.1843 57.9765C32.6057 57.9379 32.7611 57.8727 32.8232 57.8344L32.2584 57.8959C32.2327 57.8987 32.2058 57.9014 32.1776 57.904M20.002 58.0191L32.15 56.9018M20.002 58.0191V57.9463M20.002 58.0191V57.9463M32.1776 57.904L32.088 56.9248M32.1776 57.904C32.1776 57.904 32.1777 57.904 32.1777 57.904L32.088 56.9248M32.1776 57.904C31.7267 57.9453 31.1177 57.9463 30.2096 57.9463H20.002M32.088 56.9248L31.2124 57.2497C31.2076 57.2366 31.202 57.2221 31.1958 57.2061C31.1653 57.1281 31.129 57.0421 31.0851 56.944C30.836 56.946 30.5476 56.9463 30.2096 56.9463H20.002V57.9463M32.088 56.9248L32.15 56.9018M32.15 56.9018L32.1428 56.8362L32.0416 55.9077C32.028 55.9092 32.0126 55.9108 31.9954 55.9123L31.9954 55.9123C31.912 55.92 31.8188 55.9259 31.7114 55.9305C31.8644 56.243 31.9799 56.4886 32.067 56.6943C32.0888 56.746 32.1089 56.7952 32.1273 56.8423L32.1344 56.8607L32.15 56.9018ZM5.85004 56.9018L5.85719 56.8362L5.95843 55.9077C5.972 55.9092 5.98735 55.9108 6.00457 55.9123L6.00461 55.9123C6.088 55.92 6.1812 55.9259 6.2886 55.9305C6.1356 56.243 6.02004 56.4886 5.93303 56.6943C5.91118 56.746 5.89113 56.7952 5.87274 56.8423C5.86445 56.8635 5.8569 56.8833 5.85004 56.9018ZM5.85004 56.9018L5.91195 56.9248M5.85004 56.9018C5.86967 56.904 5.89079 56.9061 5.91347 56.9082C5.96382 56.9128 6.01677 56.9168 6.07277 56.9204C6.29571 56.9346 6.56699 56.941 6.91495 56.944C6.87104 57.0421 6.83467 57.1281 6.8042 57.2061C6.79795 57.2221 6.79244 57.2366 6.7876 57.2497L5.91195 56.9248M5.91195 56.9248L5.82233 57.904C5.82234 57.904 5.82235 57.904 5.82237 57.904M5.91195 56.9248L5.82237 57.904M5.82237 57.904C6.27326 57.9453 6.8823 57.9463 7.79038 57.9463H17.998M5.82237 57.904C5.79422 57.9014 5.76733 57.8987 5.74165 57.8959L5.17677 57.8344M17.998 57.9463V58.0191H7.79038C6.88244 58.0191 6.27041 58.0181 5.81569 57.9765C5.39434 57.9379 5.23888 57.8727 5.17677 57.8344M17.998 57.9463H18.002H17.998ZM5.17677 57.8344L5.15836 57.8323M5.17677 57.8344C5.17164 57.8312 5.16714 57.8282 5.16319 57.8254L5.15836 57.8323M5.15836 57.8323L4.46624 57.7569L4.7083 57.1044L4.71485 57.0867C4.71539 57.0928 4.71605 57.0983 4.71677 57.1031C4.7599 57.395 4.92137 57.6563 5.16318 57.8254L5.15836 57.8323ZM28.1745 6.00207C26.1701 3.93868 23.4135 2.36029 20.0026 2.0997V2.02668C23.4362 2.2875 26.2107 3.87602 28.2268 5.95134C30.4342 8.22374 31.7337 11.0812 31.9938 13.4218C32.3434 16.568 31.8272 18.6561 31.2708 20.0275C30.8355 21.1004 30.8862 22.2919 31.531 23.2436C33.3957 25.9957 35.7111 30.2255 36.1395 36.2241C36.3797 39.5871 36.133 42.3209 35.3062 44.7985C34.5578 47.0412 33.3351 49.0712 31.573 51.1656L31.4973 51.2555L31.4445 51.3606C31.1588 51.9295 31.2876 52.4989 31.4179 52.8747C31.5451 53.2415 31.7577 53.6507 31.9594 54.0388L31.9833 54.0847C32.0794 54.2698 32.1789 54.4614 32.2816 54.6667C32.6876 55.4788 32.9604 56.0266 33.1265 56.452C33.2803 56.8456 33.2916 57.0139 33.2851 57.0867L33.0875 56.554C33.0786 56.5301 33.069 56.5049 33.0587 56.4784C32.894 56.0567 32.6225 55.5115 32.2164 54.6992L31.3873 53.041L31.3856 53.0376C31.3698 53.0063 31.3538 52.9751 31.3381 52.9446C31.3244 52.9182 31.311 52.8924 31.2982 52.8678L30.4109 53.3289L31.2982 52.8678C31.2209 52.719 31.1316 52.4948 31.0764 52.2652C31.0168 52.017 31.0233 51.8709 31.0335 51.8274C31.0544 51.7382 31.0895 51.6497 31.1269 51.5763C31.1451 51.5406 31.1612 51.5136 31.1721 51.4969C31.1735 51.4948 31.1747 51.4929 31.1757 51.4913C33.2462 49.1593 34.4194 47.226 35.2372 44.7755C36.0601 42.3096 36.3067 39.5859 36.0669 36.2293C35.6397 30.248 33.3312 26.0304 31.4707 23.2844C30.8096 22.3087 30.7608 21.0908 31.2033 20.0001C31.7554 18.6396 32.2696 16.5636 31.9214 13.4299C31.6633 11.1068 30.3719 8.26403 28.1745 6.00207ZM17.9974 2.02668V2.0997C14.5865 2.36029 11.8299 3.93868 9.82547 6.00207C7.62813 8.26403 6.33669 11.1068 6.07858 13.4299C5.73038 16.5636 6.24462 18.6396 6.79668 20.0001C7.23922 21.0908 7.19038 22.3087 6.5293 23.2844C4.66876 26.0304 2.36033 30.248 1.93309 36.2293C1.69334 39.5859 1.93994 42.3096 2.76283 44.7755C3.5812 47.2279 4.67732 49.0632 6.75971 51.4058C6.76973 51.4171 6.81147 51.4687 6.85783 51.5551C6.90285 51.6391 6.94498 51.7423 6.97012 51.8585C6.98815 51.9419 6.98716 52.0836 6.93326 52.2887C6.88099 52.4878 6.79349 52.6913 6.70179 52.8678L7.58914 53.3289L17.9974 2.02668ZM19.998 58.0191V57.9463V58.0191ZM25.4021 14.972C25.4021 18.5066 22.5367 21.372 19.0021 21.372C15.4674 21.372 12.602 18.5066 12.602 14.972C12.602 11.4373 15.4674 8.5719 19.0021 8.5719C22.5367 8.5719 25.4021 11.4373 25.4021 14.972Z" stroke="#AD2D11" stroke-width="2"/>
<path d="M2.41962 34.8835H9.84788C10.3096 34.8835 10.5405 34.8835 10.7524 34.8608C12.0103 34.7264 13.1304 34.0049 13.773 32.9151C13.8812 32.7315 13.9767 32.5213 14.1676 32.1009L14.8056 30.6959C15.5714 29.0098 17.2522 27.927 19.1041 27.927C20.998 27.927 22.7086 29.0588 23.4492 30.8019L24.0771 32.2799C24.2675 32.728 24.3627 32.9521 24.4727 33.1471C25.1038 34.2658 26.2338 35.0135 27.5102 35.1568C27.7327 35.1818 27.9762 35.1818 28.463 35.1818H35.5845" stroke="#AD2D11" stroke-width="2"/>
</svg>
